<svg width="192" height="132" fill="none" xmlns="http://www.w3.org/2000/svg"><path d="M192 66a66.48 66.48 0 01-9.6 34.38 65.76 65.76 0 01-34.33 27.96 65.18 65.18 0 01-76.47-26.38 66.37 66.37 0 01-2.97-66.8A65.8 65.8 0 0192.1 9.87a65.1 65.1 0 0166.3-1.51 65.73 65.73 0 0124.57 24.21A66.42 66.42 0 01192 66V66z" fill="url(#paint0_linear)"/><path d="M100.85 106.74l-7.23-11.38S113.65 72 115.66 70.63c0 0-10.1 17.09-14.8 36.11z" fill="url(#paint1_linear)"/><path d="M93.62 95.36L80 107.57 54.91 95.36 35.72 96.4s11.95 4.08 15.32 3.9l3.36-.16S75 120.17 79.74 121.7c4.73 1.52 20.3-10.45 20.3-10.45l.9-4.47-7.32-11.42z" fill="url(#paint2_linear)"/><path d="M131.24 67.87a18.4 18.4 0 01-6.02 1.75c-2.42.37-6.1-.99-6.1-.99 2.78-2.2 2.13-7.4 2.13-7.4l.06-.03c2.97-.23 5.45-1.92 7.18-3.56-.63 4.45 2.75 10.23 2.75 10.23z" fill="url(#paint3_linear)"/><path d="M131.24 51.31v3.06a18.63 18.63 0 01-2.75 3.25c-1.73 1.65-4.2 3.34-7.17 3.56-1.35.1-2.7-.1-3.96-.58-8.08-3.05-2.4-19.22-2.4-19.22 2.57-6.57 14.18-3.4 14.18-3.4 1.56 1.88 1.85 7.1 1.8 7.6-.27.72-.6 1.4-1.02 2.04 0 0 2.21-2.1 2.97-.7.75 1.4-1.65 4.4-1.65 4.4z" fill="url(#paint4_linear)"/><path d="M131.24 54.38v-3.06s2.4-2.97 1.64-4.38c-.75-1.4-2.96.7-2.96.7.41-.63.75-1.32 1-2.03.07-.51-.18-5.43-1.78-7.6 0 0-11.62-3.18-14.18 3.4 0 0-3.33-.85-6.19-4.84-4.68-6.52.91-7.32 6.45-6.06 6.72 1.53 13.46-3.48 21.16 1.6 7.7 5.1.8 16.67-5.14 22.27z" fill="#262F72"/><g filter="url(#filter0_d)"><path d="M78.38 25.96H12.87a2.88 2.88 0 00-2.87 2.9v60.9c0 1.59 1.28 2.88 2.87 2.88h65.51c1.59 0 2.87-1.3 2.87-2.89v-60.9c0-1.6-1.28-2.89-2.87-2.89z" fill="#fff"/></g><path d="M20.91 38.04c-.18.21-.41.37-.68.45-.3.11-.63.16-.96.16-.35 0-.68-.08-.98-.24a1.63 1.63 0 01-.66-.72 2.53 2.53 0 01-.23-1.1v-.3c-.01-.38.06-.76.21-1.12.14-.3.35-.55.63-.72a2.05 2.05 0 012.16.11c.3.28.48.67.5 1.08h-.86a.87.87 0 00-.26-.55.83.83 0 00-.56-.17.78.78 0 00-.7.34c-.17.3-.25.66-.23 1.02v.27c-.02.36.07.72.26 1.02a.89.89 0 00.75.35 1 1 0 00.71-.21v-.75h-.8v-.66h1.7v1.74z" fill="#64B5F6"/><path d="M72.83 34.2H26.41c-.57 0-1.03.45-1.03 1.02v3.76c0 .57.46 1.03 1.03 1.03h46.42c.57 0 1.02-.46 1.02-1.03v-3.76c0-.57-.45-1.03-1.02-1.03z" fill="#E7EEF2"/><path d="M73.85 43.3H25.38v1.02h48.47V43.3z" fill="#BBDEFB"/><path d="M73.85 45.6H25.38v1.01h48.47V45.6zM73.85 47.88H25.38v1.02h48.47v-1.02zM73.85 50.17H25.38v1.02h48.47v-1.02z" fill="#E7E8E9"/><path d="M73.85 54.46H25.38v1.02h48.47v-1.02z" fill="#BBDEFB"/><path d="M73.85 56.75H25.38v1.02h48.47v-1.02zM73.85 59.04H25.38v1.02h48.47v-1.02zM73.85 61.33H25.38v1.02h48.47v-1.02z" fill="#E7E8E9"/><path d="M73.85 65.5H25.38v1h48.47v-1z" fill="#BBDEFB"/><path d="M73.85 67.78H25.38v1.02h48.47v-1.02zM73.85 70.07H25.38v1.02h48.47v-1.02zM73.85 72.36H25.38v1.02h48.47v-1.02z" fill="#E7E8E9"/><path d="M73.85 76.52H25.38v1.02h48.47v-1.02z" fill="#BBDEFB"/><path d="M73.85 78.81H25.38v1.02h48.47v-1.02zM73.85 81.1H25.38v1.02h48.47V81.1zM73.85 83.4H25.38v1.01h48.47V83.4z" fill="#E7E8E9"/><path d="M148.7 92.46c3.46 10.36 6.02 22.36 7.77 32.24a51.18 51.18 0 01-2.77 1.36 62.77 62.77 0 01-10.26 3.71 65.19 65.19 0 01-46.21-4.73 1823.49 1823.49 0 015.23-26.12c2.9-13.9 7.04-21.46 10.47-25.55l.04-.05a21.53 21.53 0 012.18-2.25l.5-.43c2.07-1.7 3.47-2 3.47-2l.13.04h.07c1.1.43 2.25.72 3.42.85h.23c.74.07 1.5.08 2.25.03h.04c2.09-.13 4.12-.72 5.95-1.73a21.6 21.6 0 016 3.12c5.23 3.87 15.74 18.03 15.74 18.03l-4.24 3.48z" fill="url(#paint5_linear)"/><path d="M167.94 111.8c-.03 1.42-1.3 4.29-3.18 7.77a65 65 0 01-16.69 8.77l4.88-15.68-12.63-13.36 8.38-6.84 4.25-3.47s15.12 17.34 14.99 22.81z" fill="url(#paint6_linear)"/><defs><linearGradient id="paint0_linear" x1="126.79" y1="7.17" x2="124.51" y2="137.26" gradientUnits="userSpaceOnUse"><stop stop-color="#fff" stop-opacity="0"/><stop offset="1" stop-color="#64B5F6" stop-opacity=".6"/></linearGradient><linearGradient id="paint1_linear" x1="106.23" y1="68.21" x2="102.38" y2="103.45" gradientUnits="userSpaceOnUse"><stop stop-color="#42A5F5"/><stop offset="1" stop-color="#1565C0"/></linearGradient><linearGradient id="paint2_linear" x1="62.53" y1="105.32" x2="104.45" y2="110.83" gradientUnits="userSpaceOnUse"><stop stop-color="#FFE082"/><stop offset="1" stop-color="#FFA726"/></linearGradient><linearGradient id="paint3_linear" x1="9417.78" y1="2544.52" x2="9420.77" y2="2315.66" gradientUnits="userSpaceOnUse"><stop stop-color="#FFE082"/><stop offset="1" stop-color="#FFA726"/></linearGradient><linearGradient id="paint4_linear" x1="14987.3" y1="4075.82" x2="15780.5" y2="4075.82" gradientUnits="userSpaceOnUse"><stop stop-color="#FFE082"/><stop offset="1" stop-color="#FFA726"/></linearGradient><linearGradient id="paint5_linear" x1="42948.6" y1="15103.6" x2="48847.7" y2="20773.6" gradientUnits="userSpaceOnUse"><stop stop-color="#42A5F5"/><stop offset="1" stop-color="#1565C0"/></linearGradient><linearGradient id="paint6_linear" x1="23009.9" y1="12265.9" x2="22606.5" y2="9747.27" gradientUnits="userSpaceOnUse"><stop stop-color="#FFE082"/><stop offset="1" stop-color="#FFA726"/></linearGradient><filter id="filter0_d" x="0" y="19.96" width="91.25" height="86.68" filterUnits="userSpaceOnUse" color-interpolation-filters="sRGB"><feFlood flood-opacity="0" result="BackgroundImageFix"/><feColorMatrix in="SourceAlpha" values="0 0 0 0 0 0 0 0 0 0 0 0 0 0 0 0 0 0 127 0"/><feOffset dy="4"/><feGaussianBlur stdDeviation="5"/><feColorMatrix values="0 0 0 0 0 0 0 0 0 0 0 0 0 0 0 0 0 0 0.15 0"/><feBlend in2="BackgroundImageFix" result="effect1_dropShadow"/><feBlend in="SourceGraphic" in2="effect1_dropShadow" result="shape"/></filter></defs></svg>