<svg width="301" height="181" fill="none" xmlns="http://www.w3.org/2000/svg"><ellipse opacity=".2" cx="150.157" cy="171.26" rx="150.157" ry="9.74" fill="#98C3E8"/><path d="M250.397 142.781c-2.992-.748 1.87 8.417 4.676 13.093 2.129 3.741 6.546 3.273 6.546.935s-7.481-13.092-11.222-14.028z" fill="url(#paint0_linear)"/><path d="M272.404 143.695c-.13-3.082-7.543 4.178-11.232 8.193-2.985 3.101-1.286 7.205.957 6.542 2.242-.662 10.437-10.882 10.275-14.735z" fill="url(#paint1_linear)"/><path d="M261.597 139.64c-1.944-2.396-3.559 7.853-4.124 13.276-.544 4.27 3.269 6.549 4.673 4.679 1.404-1.869 1.88-14.961-.549-17.955z" fill="url(#paint2_linear)"/><path d="M51.672 168.799l1.403-5.144h-4.208l-6.546 8.417 9.351-3.273zM23.617 172.072l3.74-3.273-3.272-2.338-10.287 5.611h9.82z" fill="#6FCF97"/><path d="M111.524 65.93l-2.806 6.546-1.403 1.87-4.676 1.403-.467-5.143 3.273-7.95 6.079 3.274z" fill="#F2994A"/><path d="M125.551 68.735l1.403 1.87 3.741-1.87-1.871-3.273c-1.402-2.338-4.068-5.471-5.611-7.014-1.402-1.403-1.247-.467-1.402.468l2.805 3.74s-1.15.994-1.403 1.87c-.308 1.068-.146 1.88.468 2.806.504.762 1.87 1.403 1.87 1.403z" fill="url(#paint3_linear)"/><path d="M105.912 79.957l2.338 3.273 4.208-3.273c-1.247-1.402-3.741-4.301-3.741-4.676v-2.805c-.935.312-2.286 1.325-3.74.935-1.497-.401-2.182-1.87-2.806-2.805 0 0-.944.463-1.403.935-1.528 1.57-1.094 3.712 0 5.61 1.143 1.983 5.144 2.806 5.144 2.806z" fill="url(#paint4_linear)"/><path d="M130.695 68.735L148 85.5l-9.356 2.406-11.69-17.3 3.741-1.87z" fill="url(#paint5_linear)"/><path d="M159.218 76.684c-1.496-3.367 4.053-8.26 7.014-10.287l12.625 14.963-6.079 7.949-4.676 10.287-7.481-10.287 2.805-6.079c-.779-.779-2.712-3.18-4.208-6.546z" fill="url(#paint6_linear)"/><path d="M27.358 168.331l-3.273-1.87 47.226-46.291h36.939l7.949 15.43-48.629 8.884-40.212 23.847z" fill="url(#paint7_linear)"/><path opacity=".2" d="M114.5 135.5l-47 9-8 4.5 14-28 41 14.5z" fill="#000"/><path d="M127.889 110.818c-2.993 1.87-8.573 3.273-10.755 3.741l9.352 13.092 28.523-7.949 11.689-27.587-4.676-6.08c-2.026-.31-7.294-1.495-10.286-1.87-3.741-.467-21.977 5.612-25.25 5.612-2.619 0-10.443-6.547-14.028-9.82l-4.208 3.273c3.117 4.209 10.38 13 14.495 14.496 5.144 1.87 19.171-1.87 18.236 0-.935 1.87-9.352 10.754-13.092 13.092z" fill="url(#paint8_linear)"/><path opacity=".2" d="M146.5 99.5c-1.6 4-13.333 9.333-19 11.5 6-4 10.5-9.5 13.5-13 2.667-1 7.1-2.5 5.5 1.5z" fill="#000"/><path d="M53.075 163.655h-4.208c4.364-17.612 14.215-52.837 18.704-52.837 4.489 0 34.913 2.494 49.564 3.741l7.949 10.287L104 134.5l-28.948-6.381-21.977 35.536z" fill="url(#paint9_linear)"/><path d="M114.33 169.266c-27.12 1.403-30.393-4.208-32.731-8.416-2.806-8.417 0-14.028 14.027-22.444 14.028-8.417 31.329-16.834 45.356-24.783 14.028-7.949 35.537-45.823 57.513-49.564 21.977-3.74 35.537 24.315 40.68 53.773 5.144 29.458-10.754 46.291-16.365 46.291-5.611 0-81.36 3.74-108.48 5.143z" fill="url(#paint10_linear)"/><path d="M166.231 76.684c-2.992-1.122-1.246-7.014 0-9.82 1.539-5.143 11.69-14.027 18.704-15.43 7.013-1.402 16.365 6.547 16.365 11.69 0 5.144 0 7.95 6.546 11.69 6.547 3.74 7.949 13.56.936 17.768-7.014 4.208-6.079.935-16.366 4.676-10.287 3.741-15.898 21.041-20.106 13.56-4.208-7.481 2.805-7.014-1.403-12.157-4.208-5.144 6.079-13.093 5.611-16.833-.468-3.741-6.546-3.741-10.287-5.144z" fill="url(#paint11_linear)"/><path fill="#5A98D0" d="M33.278 57.628H69.75v27.12H33.278z"/><path d="M47.579 70.444a12.296 12.296 0 005.349 5.349l1.785-1.786a.807.807 0 01.828-.195c.91.3 1.891.463 2.898.463.446 0 .812.365.812.812v2.832a.814.814 0 01-.812.812c-7.622 0-13.798-6.177-13.798-13.798 0-.447.365-.812.811-.812h2.841c.447 0 .812.365.812.812 0 1.014.162 1.988.462 2.897.09.285.025.601-.203.828l-1.785 1.786z" fill="#fff"/><path fill="#5A98D0" d="M51.946 0h36.472v27.12H51.946z"/><path d="M77.107 7.305H64.12c-.892 0-1.615.73-1.615 1.623l-.008 9.74c0 .893.73 1.623 1.623 1.623h12.987c.893 0 1.623-.73 1.623-1.623v-9.74c0-.893-.73-1.623-1.623-1.623zm0 3.247l-6.493 4.058-6.494-4.058V8.928l6.494 4.058 6.493-4.058v1.624z" fill="#fff"/><path fill="#5A98D0" d="M124.184 0h36.472v27.12h-36.472z"/><path d="M142.032 5.682c-4.48 0-8.108 3.636-8.108 8.116 0 4.48 3.628 8.117 8.108 8.117 4.489 0 8.125-3.636 8.125-8.117 0-4.48-3.636-8.116-8.125-8.116zm5.625 4.87h-2.394a12.714 12.714 0 00-1.12-2.89 6.517 6.517 0 013.514 2.89zm-5.617-3.215a11.427 11.427 0 011.551 3.215h-3.101c.349-1.161.877-2.24 1.55-3.215zm-6.282 8.085a6.683 6.683 0 01-.211-1.624c0-.56.081-1.104.211-1.623h2.744a13.388 13.388 0 00-.114 1.623c0 .552.049 1.088.114 1.623h-2.744zm.666 1.623h2.394c.26 1.014.633 1.988 1.12 2.89a6.482 6.482 0 01-3.514-2.89zm2.394-6.494h-2.394a6.482 6.482 0 013.514-2.889c-.487.901-.86 1.875-1.12 2.89zm3.222 9.708a11.451 11.451 0 01-1.55-3.214h3.101a11.426 11.426 0 01-1.551 3.214zm1.9-4.838h-3.799a11.95 11.95 0 01-.13-1.623c0-.552.057-1.096.13-1.623h3.799c.073.527.13 1.071.13 1.623s-.057 1.088-.13 1.623zm.203 4.513c.487-.9.86-1.875 1.12-2.89h2.394a6.517 6.517 0 01-3.514 2.89zm1.436-4.513c.065-.535.114-1.07.114-1.623 0-.552-.049-1.088-.114-1.623h2.744c.13.52.211 1.063.211 1.623s-.081 1.104-.211 1.623h-2.744z" fill="#fff"/><path d="M249.461 152.133c1.402-2.338 20.847-1.87 21.509 0 .661 1.871-.936 12.158-4.209 13.093-3.272.935-9.819 1.402-12.625 0-2.806-1.403-6.078-10.755-4.675-13.093z" fill="#F2994A"/><defs><linearGradient id="paint0_linear" x1="255.538" y1="142.738" x2="255.538" y2="158.624" gradientUnits="userSpaceOnUse"><stop stop-color="#6CEDA0"/><stop offset="1" stop-color="#199D56"/></linearGradient><linearGradient id="paint1_linear" x1="273.901" y1="148.613" x2="258.665" y2="153.113" gradientUnits="userSpaceOnUse"><stop stop-color="#6CEDA0"/><stop offset="1" stop-color="#199D56"/></linearGradient><linearGradient id="paint2_linear" x1="265.733" y1="142.693" x2="256.193" y2="155.395" gradientUnits="userSpaceOnUse"><stop stop-color="#6CEDA0"/><stop offset="1" stop-color="#199D56"/></linearGradient><linearGradient id="paint3_linear" x1="132.021" y1="61.037" x2="121.327" y2="65.582" gradientUnits="userSpaceOnUse"><stop stop-color="#FFF8E1"/><stop offset="1" stop-color="#FFCC80"/></linearGradient><linearGradient id="paint4_linear" x1="114.35" y1="73.846" x2="101.318" y2="81.906" gradientUnits="userSpaceOnUse"><stop stop-color="#FFF8E1"/><stop offset="1" stop-color="#FFCC80"/></linearGradient><linearGradient id="paint5_linear" x1="138.996" y1="67.449" x2="137.852" y2="86.311" gradientUnits="userSpaceOnUse"><stop stop-color="#98D0FC"/><stop offset="1" stop-color="#3481D7"/></linearGradient><linearGradient id="paint6_linear" x1="164" y1="71.5" x2="164.808" y2="84.327" gradientUnits="userSpaceOnUse"><stop stop-color="#FFF8E1"/><stop offset="1" stop-color="#FFCC80"/></linearGradient><linearGradient id="paint7_linear" x1="42.5" y1="138" x2="78" y2="152" gradientUnits="userSpaceOnUse"><stop offset=".064" stop-color="#EB5757"/><stop offset="1" stop-color="#872727"/></linearGradient><linearGradient id="paint8_linear" x1="121" y1="80" x2="146.847" y2="110.376" gradientUnits="userSpaceOnUse"><stop stop-color="#98D0FC"/><stop offset="1" stop-color="#3481D7"/></linearGradient><linearGradient id="paint9_linear" x1="70" y1="108" x2="101" y2="142.5" gradientUnits="userSpaceOnUse"><stop stop-color="#EB5757"/><stop offset="1" stop-color="#872727"/></linearGradient><linearGradient id="paint10_linear" x1="240" y1="117" x2="166.369" y2="114.12" gradientUnits="userSpaceOnUse"><stop stop-color="#FCF898"/><stop offset="1" stop-color="#D7BD34"/></linearGradient><linearGradient id="paint11_linear" x1="189.008" y1="51.271" x2="189.008" y2="112.674" gradientUnits="userSpaceOnUse"><stop stop-color="#AF6CED"/><stop offset="1" stop-color="#5E199D"/></linearGradient></defs></svg>