<svg width="190" height="48" fill="none" xmlns="http://www.w3.org/2000/svg"><circle cx="16" cy="24" r="16" fill="#98C3E8"/><circle cx="32" cy="24" r="15" fill="#fff" stroke="#316099" stroke-width="2"/><path d="M34.297 30.07H29.16L28.184 33h-3.116l5.293-14.219h2.715L38.398 33h-3.115l-.986-2.93zm-4.346-2.373h3.555l-1.787-5.322-1.768 5.322z" fill="#316099"/><path d="M77.166 29.365h-7.71L67.841 34h-3.596l7.52-19.906h3.103L82.402 34h-3.609l-1.627-4.635zm-6.74-2.789h5.77l-2.885-8.258-2.885 8.258zM86.079 34V21.668h-2.255v-2.461h2.255v-1.354c0-1.64.456-2.907 1.368-3.8.911-.894 2.187-1.34 3.828-1.34.583 0 1.203.082 1.86.246l-.083 2.598a6.545 6.545 0 00-1.271-.11c-1.586 0-2.38.816-2.38 2.448v1.312h3.009v2.461h-3.008V34h-3.323zm17.062-11.758a8.21 8.21 0 00-1.353-.11c-1.522 0-2.548.584-3.076 1.75V34h-3.323V19.207h3.172l.082 1.654c.802-1.285 1.915-1.927 3.336-1.927.474 0 .866.063 1.176.191l-.014 3.117zM109.334 34h-3.322V19.207h3.322V34zm-3.527-18.635c0-.51.159-.934.478-1.271.329-.337.793-.506 1.395-.506s1.066.169 1.395.506c.328.337.492.76.492 1.271 0 .502-.164.92-.492 1.258-.329.328-.793.492-1.395.492s-1.066-.164-1.395-.492c-.319-.337-.478-.757-.478-1.258zM122.363 34c-.146-.283-.273-.743-.383-1.38-1.057 1.102-2.351 1.653-3.883 1.653-1.485 0-2.697-.423-3.636-1.271-.939-.848-1.408-1.896-1.408-3.145 0-1.576.583-2.784 1.75-3.623 1.175-.847 2.852-1.271 5.031-1.271h2.037v-.97c0-.766-.214-1.377-.643-1.833-.428-.465-1.08-.697-1.955-.697-.756 0-1.376.191-1.859.574-.483.374-.725.852-.725 1.436h-3.322c0-.811.269-1.568.807-2.27.537-.71 1.267-1.267 2.187-1.668.93-.4 1.964-.601 3.104-.601 1.731 0 3.112.437 4.142 1.312 1.03.866 1.559 2.087 1.586 3.664v6.672c0 1.33.187 2.393.561 3.186V34h-3.391zm-3.65-2.393c.656 0 1.271-.16 1.845-.478.584-.32 1.021-.748 1.313-1.285v-2.79h-1.791c-1.231 0-2.156.215-2.776.643-.619.429-.929 1.035-.929 1.819 0 .638.209 1.148.629 1.53.428.375.998.561 1.709.561zm13.603-12.4l.095 1.709c1.094-1.322 2.53-1.982 4.307-1.982 3.081 0 4.648 1.763 4.703 5.29V34h-3.322v-9.584c0-.939-.205-1.631-.615-2.078-.401-.456-1.062-.684-1.983-.684-1.34 0-2.338.606-2.994 1.819V34h-3.322V19.207h3.131zm21.355 10.773c0-.592-.247-1.043-.739-1.353-.483-.31-1.289-.583-2.42-.82-1.13-.237-2.073-.538-2.83-.903-1.659-.802-2.488-1.964-2.488-3.486 0-1.276.538-2.342 1.613-3.2 1.076-.856 2.443-1.284 4.102-1.284 1.768 0 3.194.437 4.279 1.312 1.094.875 1.641 2.01 1.641 3.404h-3.323c0-.638-.236-1.166-.71-1.585-.474-.429-1.103-.643-1.887-.643-.729 0-1.326.168-1.791.506a1.6 1.6 0 00-.684 1.353c0 .51.214.907.643 1.19.428.282 1.294.57 2.597.861 1.304.283 2.325.624 3.063 1.025.747.392 1.299.866 1.654 1.422.365.556.547 1.23.547 2.024 0 1.33-.551 2.41-1.654 3.24-1.103.82-2.548 1.23-4.334 1.23-1.212 0-2.292-.218-3.24-.656-.948-.437-1.687-1.039-2.215-1.804-.529-.766-.793-1.591-.793-2.475h3.226c.046.784.342 1.39.889 1.818.547.42 1.272.63 2.174.63.875 0 1.54-.165 1.996-.493.456-.337.684-.775.684-1.313zm11.538-2.324l-1.477 1.518V34h-3.322V13h3.322v12.113l1.04-1.299 4.087-4.607h3.993l-5.496 6.166L173.44 34h-3.842l-4.389-6.344zM184.431 34c-.146-.283-.273-.743-.383-1.38-1.057 1.102-2.351 1.653-3.882 1.653-1.486 0-2.698-.423-3.637-1.271-.939-.848-1.408-1.896-1.408-3.145 0-1.576.583-2.784 1.75-3.623 1.175-.847 2.852-1.271 5.031-1.271h2.037v-.97c0-.766-.214-1.377-.643-1.833-.428-.465-1.08-.697-1.955-.697-.756 0-1.376.191-1.859.574-.483.374-.725.852-.725 1.436h-3.322c0-.811.269-1.568.807-2.27.537-.71 1.267-1.267 2.187-1.668.93-.4 1.964-.601 3.104-.601 1.732 0 3.112.437 4.142 1.312 1.03.866 1.559 2.087 1.586 3.664v6.672c0 1.33.187 2.393.561 3.186V34h-3.391zm-3.65-2.393c.656 0 1.271-.16 1.845-.478.584-.32 1.021-.748 1.313-1.285v-2.79h-1.791c-1.23 0-2.156.215-2.775.643-.62.429-.93 1.035-.93 1.819 0 .638.21 1.148.629 1.53.428.375.998.561 1.709.561z" fill="#fff"/></svg>