<svg width="171" height="132" fill="none" xmlns="http://www.w3.org/2000/svg"><path d="M171 66.5a65.14 65.14 0 01-9.68 34.12 65.91 65.91 0 01-27.64 24.86l-.1.05-.35.17-.88.4a64.15 64.15 0 01-9.01 3.32l-1.34.37a66.8 66.8 0 01-46.64-4.7l-1.02-.5a66.14 66.14 0 01-28.24-28.2 64.78 64.78 0 01-7.16-33.55 65.27 65.27 0 0121.24-44.57A66.4 66.4 0 01106.76 1a66.34 66.34 0 0145.53 19.82 65.2 65.2 0 0118.7 45.68h.01z" fill="url(#paint0_linear)"/><path d="M91.94 64.17s-14.77-6.94-16.06-16.5c-1.28-9.56-.38-18.7 6.98-21.25 0 0 4.66-14.72 21.17-8.8 16.51 5.91 13.9 23.67 22.93 25.8 9.03 2.13 25.88-6.83 29.1 4.1 3.2 10.92-7.36 10.26-14.4 19.53-7.02 9.28 3.84 14.15 1.85 20.53-1.99 6.39-9.5 10.78-9.5 10.78L91.94 64.17z" fill="url(#paint1_linear)"/><path d="M71.71 85.14l4.17 11.25h.46l6.52-29.34c-4.12 3.58-11.15 18.09-11.15 18.09z" fill="url(#paint2_linear)"/><path d="M64.38 100.65l-2.64 1.32c-3.28 1.95-8.19 1.4-8.19 1.4 2.65 2.95 17.57 6.3 21.77 6.21l.77-10.47h-9.3l-2.4 1.54z" fill="url(#paint3_linear)"/><path d="M133.68 125.47l-.1.05-.35.17-.88.4a64.15 64.15 0 01-9.01 3.31l-1.34.37a66.8 66.8 0 01-46.64-4.7l-1.02-.5c.15-4.33.37-9.52.69-15 .2-3.41.45-6.94.75-10.45.07-.92.15-1.83.24-2.73 1.2-12.93 3.12-24.9 6.21-28.72l.05-.05c.4-.53.94-.93 1.58-1.14 4.46-1.05 7.6-1.4 8.1-2.3.49-.92 0-2.7 0-2.7l.88-.13a64.62 64.62 0 006.2-1.2c2.1-.54 4.08-1.24 5.05-2.08l2 5.24s14.94-1.87 20.77 3.76l.1.1a7.42 7.42 0 011.1 1.36c1.9 3.03 3.24 15.2 4.17 28.39.22 3.03.41 6.16.58 9.23.38 7.08.68 13.94.87 19.32z" fill="url(#paint4_linear)"/><path opacity=".15" d="M133.58 125.53l-.35.17-.88.4a64.17 64.17 0 01-9.01 3.32c-6.88-7.27-9.62-16.7-9.62-16.7l19.08-6.57.78 19.38z" fill="#000"/><path d="M126.86 67.05c6.9 6.72 8.4 20.82 7.13 31.32-1.27 10.5-3.64 20.33-8.55 20.03-4.91-.3-21.91-12-28.48-18.37l3.84-7.3 13.88 5.73V83.18l12.18-16.13z" fill="url(#paint5_linear)"/><path d="M126.86 67.05c6.9 6.72 8.4 20.82 7.13 31.32-1.27 10.5-3.64 20.33-8.55 20.03-4.91-.3-21.91-12-28.48-18.37l3.84-7.3 13.88 5.73V83.18l12.18-16.13z" fill="url(#paint6_linear)"/><g filter="url(#filter0_d)"><path d="M91.15 96.39h-63.7v2.73h63.7v-2.73z" fill="url(#paint7_linear)"/><path d="M63.43 62.84H15L27.45 96.4h48.43L63.43 62.84z" fill="url(#paint8_linear)"/></g><path d="M42 99.12s8.35 4.15 13.66 4.25c5.31.1 11.14-4.25 11.14-4.25H42z" fill="url(#paint9_linear)"/><path d="M100.8 92.73s-7.35-3.68-10.52-4.08c-3.16-.4-12.99 7.74-12.99 7.74h13.87l5.81 3.64 3.83-7.3z" fill="url(#paint10_linear)"/><path d="M103.47 49.79c.04 2.77.24 5.53.61 8.27-3.28 1.83-7.13 2.82-11.25 3.3l-.24-3.3-.14-2.02v-.07a6.12 6.12 0 01-2.3-.5c-4.98-2.13-6.05-12.53-6.05-12.53 2-.08 4.59-3.64 4.59-3.64 1.45 2.2 8.19 6.46 12.1 5.32 3.9-1.15 3.6-3.88 3.6-3.88a4.18 4.18 0 012.55 3.5c.2 2.66-3.47 5.55-3.47 5.55z" fill="url(#paint11_linear)"/><path opacity=".15" d="M100.13 52.72c-.92 1.55-5.1 4.01-7.53 5.35l-.14-2.02c.15 0 .3-.05.44-.08a16.9 16.9 0 005.7-2.11 8.9 8.9 0 001.46-1.08l.07-.06zM108.95 96.1l10.81 4.39-5.1-3.64V83.2s-1.59 11.85-5.71 12.9z" fill="#000"/><defs><linearGradient id="paint0_linear" x1="105.19" y1="8.09" x2="102.97" y2="137.22" gradientUnits="userSpaceOnUse"><stop stop-color="#fff" stop-opacity="0"/><stop offset="1" stop-color="#64B5F6" stop-opacity=".6"/></linearGradient><linearGradient id="paint1_linear" x1="75.4" y1="57.28" x2="156.66" y2="57.28" gradientUnits="userSpaceOnUse"><stop stop-color="#EF9A9A"/><stop offset="1" stop-color="#D81B60"/></linearGradient><linearGradient id="paint2_linear" x1="76.68" y1="82.88" x2="74.27" y2="110.51" gradientUnits="userSpaceOnUse"><stop stop-color="#7E57C2"/><stop offset="1" stop-color="#4527A0"/></linearGradient><linearGradient id="paint3_linear" x1="6813.02" y1="2527.43" x2="6789.49" y2="3103.43" gradientUnits="userSpaceOnUse"><stop stop-color="#7E57C2"/><stop offset="1" stop-color="#4527A0"/></linearGradient><linearGradient id="paint4_linear" x1="20341.2" y1="14858" x2="24468.7" y2="22492.9" gradientUnits="userSpaceOnUse"><stop stop-color="#7E57C2"/><stop offset="1" stop-color="#4527A0"/></linearGradient><linearGradient id="paint5_linear" x1="13960.4" y1="9770.53" x2="17624.5" y2="15926.1" gradientUnits="userSpaceOnUse"><stop stop-color="#7E57C2"/><stop offset="1" stop-color="#4527A0"/></linearGradient><linearGradient id="paint6_linear" x1="118.76" y1="72.75" x2="113.04" y2="119.81" gradientUnits="userSpaceOnUse"><stop offset=".14" stop-color="#7E57C2" stop-opacity="0"/><stop offset=".26" stop-color="#724DBB" stop-opacity=".21"/><stop offset=".48" stop-color="#5F3DAF" stop-opacity=".55"/><stop offset=".66" stop-color="#5131A7" stop-opacity=".79"/><stop offset=".81" stop-color="#482AA2" stop-opacity=".94"/><stop offset=".91" stop-color="#4527A0"/></linearGradient><linearGradient id="paint7_linear" x1="27.45" y1="97.75" x2="91.15" y2="97.75" gradientUnits="userSpaceOnUse"><stop stop-color="#D2D4D5"/><stop offset="1" stop-color="#AAACAE"/></linearGradient><linearGradient id="paint8_linear" x1="537.99" y1="4198.71" x2="4142.02" y2="8332.05" gradientUnits="userSpaceOnUse"><stop stop-color="#D2D4D5"/><stop offset="1" stop-color="#AAACAE"/></linearGradient><linearGradient id="paint9_linear" x1="43.58" y1="94.56" x2="63.88" y2="103.34" gradientUnits="userSpaceOnUse"><stop stop-color="#FFF8E1"/><stop offset="1" stop-color="#FFCC80"/></linearGradient><linearGradient id="paint10_linear" x1="7875.06" y1="2941.73" x2="8393.29" y2="3509.97" gradientUnits="userSpaceOnUse"><stop stop-color="#FFF8E1"/><stop offset="1" stop-color="#FFCC80"/></linearGradient><linearGradient id="paint11_linear" x1="8044.47" y1="3227.22" x2="8499.41" y2="4088.69" gradientUnits="userSpaceOnUse"><stop stop-color="#FFF8E1"/><stop offset="1" stop-color="#FFCC80"/></linearGradient><filter id="filter0_d" x="0" y="47.84" width="116.14" height="76.28" filterUnits="userSpaceOnUse" color-interpolation-filters="sRGB"><feFlood flood-opacity="0" result="BackgroundImageFix"/><feColorMatrix in="SourceAlpha" values="0 0 0 0 0 0 0 0 0 0 0 0 0 0 0 0 0 0 127 0"/><feOffset dx="5" dy="5"/><feGaussianBlur stdDeviation="10"/><feColorMatrix values="0 0 0 0 0 0 0 0 0 0 0 0 0 0 0 0 0 0 0.2 0"/><feBlend in2="BackgroundImageFix" result="effect1_dropShadow"/><feBlend in="SourceGraphic" in2="effect1_dropShadow" result="shape"/></filter></defs></svg>