<svg width="255" height="208" fill="none" xmlns="http://www.w3.org/2000/svg"><path d="M188.52 135.76c.01 9.19-1.91 18.27-5.65 26.67a65.95 65.95 0 01-22 26.95 66.14 66.14 0 01-8.44 5.14h-.03a50.1 50.1 0 01-2.78 1.34 64.75 64.75 0 01-10.43 3.72 67.28 67.28 0 01-31.52.68l-.93-.2a66.08 66.08 0 01-14.51-5.22l-1.16-.6a66.34 66.34 0 01-25.48-23.47 65.74 65.74 0 01-2.01-66.6A66.27 66.27 0 0187.6 79.2a66.86 66.86 0 0167.09-1 66.3 66.3 0 0124.75 24.23 65.71 65.71 0 019.08 33.32z" fill="url(#paint0_linear)"/><path d="M139.43 140.54c4.24 4.33 16.58 21.19 16.58 21.19l-7.58 11.04-6.82-21.94-2.18-10.29z" fill="url(#paint1_linear)"/><path d="M152.4 194.55a50.92 50.92 0 01-2.78 1.35 64.33 64.33 0 01-10.43 3.71 67.26 67.26 0 01-31.52.69c-4 2.74-7.7 5.06-10.15 6.11l.2-1.7.84-7.09 1.92-16.51 7.62-7.32-17.14 1.32s1.8-24.82 8.83-29.92c7.03-5.1 14.4-9.68 14.4-9.68.88.57 1.85 1 2.87 1.27 2.44.67 4.97.92 7.5.76 3-.14 6-2.92 6.15-3.06 0 0 4.72.93 8.72 6.08a24.4 24.4 0 014.21 8.9c.99 3.76 2.74 12.56 4.73 23.18 1.3 6.84 2.67 14.42 4.03 21.91z" fill="url(#paint2_linear)"/><path d="M156.01 161.75l7.32 8.51 25.72-25.36.98-5.2 5.13-4.42-2.28 6.75v8.8s-19.85 31.94-25.31 33.58c-6.4 1.94-19.13-11.65-19.13-11.65l7.57-11.01z" fill="url(#paint3_linear)"/><path d="M129.3 173.39l5.97 14.27 7.71-3.3-5.65-13.96-8.02 2.99z" fill="#7E57C2"/><path d="M137.62 182.6c-.96.79-2.4.6-4.17.7-2.38.06-4.67.95-6.46 2.51a319 319 0 01-15.73 11.97l-3.59 2.55c-4 2.74-7.7 5.05-10.14 6.1-.64.33-1.34.53-2.05.6-3.43.1-4.16-7.04-4.37-12.73-.07-1.9-.09-3.62-.12-4.87-.14-4.99 0-14.26 0-14.26l17.14-1.33-1.82 11.8-.32 2.08v.01l5.13-1.88.16-.06 18.22-6.72 1.25-2.16.8 2.04h.08l7.8-1.02s.13 3.1-1.81 4.68z" fill="url(#paint4_linear)"/><path d="M133.68 108.25c-.45-1.21-.83-2.04-.94-2.28v-.06s-.4.97-3.37.73c-2.98-.23-3.96-1.7-3.96-1.7s.93 3.18-2.61 4.54c-3.42 1.31-4.76.46-4.85.4.18.2 2.84 3.03 1.07 5.27-1.83 2.33-5.95 1.87-5.95 1.87v.03c.52 1.17 1.1 2.3 1.74 3.41.34.58.67 1.12 1.03 1.62v.03c.9 1.47 2.13 2.72 3.59 3.66a17.48 17.48 0 01-5.24 9.75c.93.48 1.89.9 2.87 1.27 1.91.72 4.48 1.43 6.78 1.24a10.75 10.75 0 006.88-3.53l-1.17-4.48-1.06-4.03c9.55-2.42 6.92-12.95 5.2-17.74zm-5.72 17.88l.17-.04.27-.07c-.4.17-.82.28-1.25.33.23-.05.45-.11.69-.19l.12-.03z" fill="url(#paint5_linear)"/><path d="M139.43 105.77c-3.94 3.6-5.64 2.59-5.75 2.5v-.02c-.44-1.21-.83-2.04-.94-2.28l-.02-.06s-.4.97-3.38.73c-2.97-.23-3.95-1.7-3.95-1.7s.93 3.18-2.61 4.54c-3.42 1.31-4.77.46-4.85.4.18.19 2.84 3.02 1.07 5.27-1.83 2.33-5.95 1.87-5.95 1.87v.03a29.16 29.16 0 002.77 5.03v.03s-1.4 2.75-3.92 2.7c-2.5-.06-2.56-2.55-2.56-2.55s-1.78 3.17-7.26.11c-5.48-3.06-1.83-7.5-1.83-7.5s-3.88-2.95-3.88-7.38 6.05-7.8 6.05-7.8-2.17-5.13 1.49-7.97c3.65-2.83 9.14-.91 9.14-.91s-.1-6.58 5.48-6.47c5.6.1 6.86 3.5 6.86 3.5s5.03-3.86 10-.22c4.98 3.64 2.93 9.98 2.93 9.98s5.22 4.43 1.11 8.17z" fill="url(#paint6_linear)"/><path opacity=".15" d="M129.59 130c-2.39-.74-6.63-3.6-6.63-3.6a16 16 0 005.01-.27l.17-.04.33-.1h.04l1.08 4.02zM110.42 158.55l-2.32 15.28-1.81 11.8-4.23 3.48 9.2-3.32s-2.39-6.76-.84-27.24zM107.66 200.3c1.09.24 2.19.45 3.3.63.06-1.04.16-2.1.3-3.15l-3.6 2.52z" fill="#000"/><g filter="url(#filter0_d)"><path d="M85.42 10H58a6.83 6.83 0 00-6.85 6.8v27.25c0 3.76 3.07 6.8 6.85 6.8h27.43a6.83 6.83 0 006.86-6.8V16.8c0-3.76-3.07-6.81-6.86-6.81z" fill="#56CCF2"/></g><path d="M82 29h-4.17l3.24-3.24-1.41-1.42L75 29h-2v-2l4.66-4.66-1.42-1.41L73 24.17V20h-2v4.17l-3.24-3.24-1.42 1.41L71 27v2h-2l-4.66-4.66-1.41 1.42L66.17 29H62v2h4.17l-3.24 3.24 1.41 1.42L69 31h2v2l-4.66 4.66 1.42 1.41L71 35.83V40h2v-4.17l3.24 3.24 1.42-1.41L73 33v-2h2l4.66 4.66 1.41-1.42L77.83 31H82v-2z" fill="#fff"/><g filter="url(#filter1_d)"><path d="M227.28 113h-27.43a6.83 6.83 0 00-6.85 6.8v27.25c0 3.76 3.07 6.8 6.85 6.8h27.43a6.83 6.83 0 006.86-6.8V119.8c0-3.76-3.07-6.81-6.86-6.81z" fill="#F2C94C"/></g><path d="M223 130c0-5-4-9-9-9s-9 4-9 9c0 3.1 1.6 5.9 4 7.5v2.5c0 1.3.8 2.4 2 2.8v.2c0 1.7 1.3 3 3 3s3-1.3 3-3v-.2c1.2-.4 2-1.5 2-2.8v-2.5c2.4-1.6 4-4.4 4-7.5zm-16 0c0-3.9 3.1-7 7-7s7 3.1 7 7a7 7 0 01-6 6.9v-2.5l1.7-1.7c.4-.4.4-1 0-1.4-.4-.4-1-.4-1.4 0l-1.3 1.3-1.3-1.3c-.4-.4-1-.4-1.4 0-.4.4-.4 1 0 1.4l1.7 1.7v2.5a7 7 0 01-6-6.9zm7 14c-.6 0-1-.4-1-1h2c0 .6-.4 1-1 1zm3-4c0 .6-.4 1-1 1h-4c-.6 0-1-.4-1-1v-1.5a9.43 9.43 0 006 0v1.5z" fill="#fff"/><g filter="url(#filter2_d)"><path d="M44.28 113H16.85a6.83 6.83 0 00-6.85 6.8v27.25c0 3.76 3.07 6.8 6.85 6.8h27.43a6.83 6.83 0 006.86-6.8V119.8c0-3.76-3.07-6.81-6.86-6.81z" fill="#F58A8A"/></g><path d="M37 130h-1v-2a5 5 0 00-10 0v2h-1a2 2 0 00-2 2v10c0 1.1.9 2 2 2h12a2 2 0 002-2v-10a2 2 0 00-2-2zm-6 9a2 2 0 01-2-2c0-1.1.9-2 2-2a2 2 0 012 2 2 2 0 01-2 2zm3.1-9h-6.2v-2a3.1 3.1 0 016.2 0v2z" fill="#fff"/><g filter="url(#filter3_d)"><path d="M182.28 10h-27.43a6.83 6.83 0 00-6.85 6.8v27.25c0 3.76 3.07 6.8 6.85 6.8h27.43a6.83 6.83 0 006.86-6.8V16.8c0-3.76-3.07-6.81-6.86-6.81z" fill="#6FCF97"/></g><path d="M174.31 24.9h-16.33v10.2h16.33V24.9zM178.71 26.93l-3.6 1.51v3.16l3.6 1.52h1.31v-6.2h-1.3z" fill="#fff"/><defs><linearGradient id="paint0_linear" x1="122.27" y1="76.87" x2="120.03" y2="207.08" gradientUnits="userSpaceOnUse"><stop stop-color="#fff" stop-opacity="0"/><stop offset="1" stop-color="#64B5F6" stop-opacity=".6"/></linearGradient><linearGradient id="paint1_linear" x1="134.41" y1="136.16" x2="152.56" y2="168.28" gradientUnits="userSpaceOnUse"><stop stop-color="#E57373"/><stop offset="1" stop-color="#AD1457"/></linearGradient><linearGradient id="paint2_linear" x1="28141.2" y1="39794.5" x2="26229.2" y2="49295.9" gradientUnits="userSpaceOnUse"><stop stop-color="#E57373"/><stop offset="1" stop-color="#AD1457"/></linearGradient><linearGradient id="paint3_linear" x1="202.12" y1="147.94" x2="152.59" y2="176.83" gradientUnits="userSpaceOnUse"><stop stop-color="#FFF8E1"/><stop offset="1" stop-color="#FFCC80"/></linearGradient><linearGradient id="paint4_linear" x1="21652.4" y1="22319.6" x2="18981.7" y2="20506.4" gradientUnits="userSpaceOnUse"><stop stop-color="#FFF8E1"/><stop offset="1" stop-color="#FFCC80"/></linearGradient><linearGradient id="paint5_linear" x1="138.7" y1="113.44" x2="111.66" y2="124.65" gradientUnits="userSpaceOnUse"><stop stop-color="#FFF8E1"/><stop offset="1" stop-color="#FFCC80"/></linearGradient><linearGradient id="paint6_linear" x1="132.49" y1="84.15" x2="101.05" y2="126.91" gradientUnits="userSpaceOnUse"><stop stop-color="#FFB74D"/><stop offset="1" stop-color="#F4511E"/></linearGradient><filter id="filter0_d" x="41.14" y="0" width="71.14" height="70.86" filterUnits="userSpaceOnUse" color-interpolation-filters="sRGB"><feFlood flood-opacity="0" result="BackgroundImageFix"/><feColorMatrix in="SourceAlpha" values="0 0 0 0 0 0 0 0 0 0 0 0 0 0 0 0 0 0 127 0"/><feOffset dx="5" dy="5"/><feGaussianBlur stdDeviation="7.5"/><feColorMatrix values="0 0 0 0 0 0 0 0 0 0 0 0 0 0 0 0 0 0 0.15 0"/><feBlend in2="BackgroundImageFix" result="effect1_dropShadow"/><feBlend in="SourceGraphic" in2="effect1_dropShadow" result="shape"/></filter><filter id="filter1_d" x="183" y="103" width="71.14" height="70.86" filterUnits="userSpaceOnUse" color-interpolation-filters="sRGB"><feFlood flood-opacity="0" result="BackgroundImageFix"/><feColorMatrix in="SourceAlpha" values="0 0 0 0 0 0 0 0 0 0 0 0 0 0 0 0 0 0 127 0"/><feOffset dx="5" dy="5"/><feGaussianBlur stdDeviation="7.5"/><feColorMatrix values="0 0 0 0 0 0 0 0 0 0 0 0 0 0 0 0 0 0 0.15 0"/><feBlend in2="BackgroundImageFix" result="effect1_dropShadow"/><feBlend in="SourceGraphic" in2="effect1_dropShadow" result="shape"/></filter><filter id="filter2_d" x="0" y="103" width="71.14" height="70.86" filterUnits="userSpaceOnUse" color-interpolation-filters="sRGB"><feFlood flood-opacity="0" result="BackgroundImageFix"/><feColorMatrix in="SourceAlpha" values="0 0 0 0 0 0 0 0 0 0 0 0 0 0 0 0 0 0 127 0"/><feOffset dx="5" dy="5"/><feGaussianBlur stdDeviation="7.5"/><feColorMatrix values="0 0 0 0 0 0 0 0 0 0 0 0 0 0 0 0 0 0 0.15 0"/><feBlend in2="BackgroundImageFix" result="effect1_dropShadow"/><feBlend in="SourceGraphic" in2="effect1_dropShadow" result="shape"/></filter><filter id="filter3_d" x="138" y="0" width="71.14" height="70.86" filterUnits="userSpaceOnUse" color-interpolation-filters="sRGB"><feFlood flood-opacity="0" result="BackgroundImageFix"/><feColorMatrix in="SourceAlpha" values="0 0 0 0 0 0 0 0 0 0 0 0 0 0 0 0 0 0 127 0"/><feOffset dx="5" dy="5"/><feGaussianBlur stdDeviation="7.5"/><feColorMatrix values="0 0 0 0 0 0 0 0 0 0 0 0 0 0 0 0 0 0 0.15 0"/><feBlend in2="BackgroundImageFix" result="effect1_dropShadow"/><feBlend in="SourceGraphic" in2="effect1_dropShadow" result="shape"/></filter></defs></svg>